<?xml version="1.0" encoding="UTF-8" standalone="no"?>
<!--Generator: Xara Designer (www.xara.com), SVG filter version: 6.2.0.0-->

<svg
   xmlns:dc="http://purl.org/dc/elements/1.1/"
   xmlns:cc="http://creativecommons.org/ns#"
   xmlns:rdf="http://www.w3.org/1999/02/22-rdf-syntax-ns#"
   xmlns:svg="http://www.w3.org/2000/svg"
   xmlns="http://www.w3.org/2000/svg"
   xmlns:sodipodi="http://sodipodi.sourceforge.net/DTD/sodipodi-0.dtd"
   xmlns:inkscape="http://www.inkscape.org/namespaces/inkscape"
   version="1.1"
   overflow="visible"
   width="300"
   height="80"
   viewBox="0 0 300 80"
   id="svg23"
   sodipodi:docname="logo_tm.svg"
   style="overflow:visible;fill-rule:evenodd;stroke-width:0.50099999;stroke-linejoin:bevel"
   inkscape:version="0.92.4 (5da689c313, 2019-01-14)">
  <metadata
     id="metadata27">
    <rdf:RDF>
      <cc:Work
         rdf:about="">
        <dc:format>image/svg+xml</dc:format>
        <dc:type
           rdf:resource="http://purl.org/dc/dcmitype/StillImage" />
        <dc:title></dc:title>
      </cc:Work>
    </rdf:RDF>
  </metadata>
  <sodipodi:namedview
     pagecolor="#ffffff"
     bordercolor="#666666"
     borderopacity="1"
     objecttolerance="10"
     gridtolerance="10"
     guidetolerance="10"
     inkscape:pageopacity="0"
     inkscape:pageshadow="2"
     inkscape:window-width="1600"
     inkscape:window-height="1137"
     id="namedview25"
     showgrid="false"
     units="px"
     fit-margin-top="0"
     fit-margin-left="0"
     fit-margin-right="0"
     fit-margin-bottom="0"
     inkscape:zoom="1.2657298"
     inkscape:cx="149.717"
     inkscape:cy="19.990336"
     inkscape:window-x="-8"
     inkscape:window-y="-8"
     inkscape:window-maximized="1"
     inkscape:current-layer="svg23" />
  <defs
     id="defs2" />
  <g
     id="g3810"
     transform="matrix(1.3333334,0,0,1.3333333,0.00133333,0.03866531)">
    <path
       d="M 224.99899,-0.02899898 H -9.9999995e-4 V 59.971003 H 224.99899 Z"
       stroke-miterlimit="79.8403193612775"
       id="path4"
       inkscape:connector-curvature="0"
       style="font-size:16px;font-family:'Times New Roman';fill:none;fill-rule:evenodd;stroke:none;stroke-width:1.70302033;stroke-linejoin:miter;stroke-miterlimit:79.84031677;marker-start:none;marker-end:none" />
    <path
       d="m 0.10820627,36.538677 c 0,-8.056895 10.60102373,-14.589052 23.68273273,-14.589052 4.169876,0 8.086273,0.672325 11.4887,1.838889 l -1.607035,2.493205 c -2.882445,-0.99248 -6.214739,-1.568759 -9.782478,-1.568759 -10.808415,0 -19.5659565,5.218523 -19.5659565,11.660637 0,1.534742 0.4959367,3.00045 1.3986418,4.342099 C 10.548927,40.266478 26.255594,38.744743 27.442837,37.885328 29.801291,36.174501 50.997327,1.5507646 50.997327,1.5507646 L 32.248914,39.266995 c 0,0 -1.286429,2.339131 -4.229989,3.105501 -2.683068,0.697338 -10.810419,2.354138 -15.812868,3.358624 3.258154,1.4487 7.303796,2.304114 11.684069,2.304114 10.806412,0 19.565957,-5.220524 19.565957,-11.661637 0,-2.764336 -1.619058,-5.29656 -4.312145,-7.294526 l 1.506846,-2.778343 c 4.21396,2.635274 6.817878,6.244018 6.817878,10.237949 0,8.051892 -10.600022,14.583049 -23.677723,14.583049 -13.081709,0 -23.68273273,-6.531157 -23.68273273,-14.583049 z"
       stroke-miterlimit="79.8403193612775"
       id="path6"
       inkscape:connector-curvature="0"
       style="font-size:16px;font-family:'Times New Roman';fill:#54aad0;fill-rule:nonzero;stroke:none;stroke-width:0.22827081;stroke-linejoin:miter;stroke-miterlimit:79.84031677;marker-start:none;marker-end:none" />
    <path
       d="m 208.37859,30.612812 v -2.553234 h -3.83524 v -1.276617 h 8.9489 v 1.269614 l -3.83524,0.007 v 2.560238 z m 6.39208,0 v -3.829851 h 0.91372 l 3.5487,1.596772 3.66292,-1.596772 h 0.82256 l 0.002,3.829851 h -1.28042 l 0.006,-2.620266 -3.22008,1.346651 -3.177,-1.351654 v 2.625269 z"
       id="path8"
       inkscape:connector-curvature="0"
       style="font-size:16px;font-family:'Times New Roman';fill:#ffffff;fill-rule:nonzero;stroke:none;stroke-width:0.22827081;stroke-linejoin:miter;stroke-miterlimit:79.84031677;marker-start:none;marker-end:none" />
    <path
       d="m 187.92195,40.074386 v -3.593737 c 0,-1.776859 1.40265,-3.317604 3.23912,-3.317604 h 11.4336 c 1.83246,0 3.23711,1.541745 3.23711,3.317604 v 3.593737 c 0,1.776859 -1.40465,3.317603 -3.23711,3.317603 h -11.4336 c -1.83647,0 -3.23912,-1.538744 -3.23912,-3.317603 z m -43.46309,3.085491 v -9.775725 c 0,-0.12306 0.11522,-0.218106 0.25548,-0.218106 h 2.04186 c 0.0581,0 0.11221,0.01701 0.15629,0.04402 0.13526,-0.01801 0.27352,-0.03001 0.41679,-0.03001 h 13.72993 c 0.48392,0 0.93577,0.141068 1.3185,0.377182 0.76244,0.473229 1.25036,1.329643 1.25036,2.273099 v 2.473196 c 0,0.303146 -0.0531,0.594287 -0.15029,0.866418 -0.32561,0.90944 -1.18824,1.642795 -2.28231,1.642795 h -14.17978 v 2.347134 c 0,0.121059 -0.11622,0.220106 -0.25949,0.220106 h -2.04186 c -0.14026,0 -0.25548,-0.09905 -0.25548,-0.220106 z m 21.73205,0 v -9.775725 c 0,-0.12306 0.11622,-0.218106 0.25548,-0.218106 h 2.04286 c 0.0571,0 0.11221,0.01701 0.15629,0.04402 0.13526,-0.01801 0.27252,-0.03001 0.41579,-0.03001 h 13.72993 c 0.48392,0 0.93577,0.141068 1.31949,0.377182 0.76245,0.473229 1.24936,1.329643 1.24936,2.273099 v 2.473196 c 0,0.303146 -0.0531,0.594287 -0.14928,0.866418 -0.16631,0.464225 -0.47289,0.882427 -0.87866,1.181572 0.77547,0.689333 1.08706,1.421687 1.08706,2.863384 -0.008,0.122059 -0.0902,0.158076 -0.1583,0.165079 h -2.07492 c -0.13225,-0.006 -0.16932,-0.06203 -0.16632,-0.138066 l -0.005,-0.529256 c -0.0651,-0.325157 -0.12223,-0.49724 -0.39875,-0.803388 l -0.93877,-1.09653 h -12.92942 v 2.347134 c 0,0.121059 -0.11522,0.220106 -0.25849,0.220106 h -2.04286 c -0.13926,0 -0.25548,-0.09905 -0.25548,-0.220106 z m 37.08404,-3.085491 v -3.593737 c 0,-0.470228 -0.35968,-0.76437 -0.68028,-0.76437 h -11.4336 c -0.32461,0 -0.68229,0.296143 -0.68229,0.76437 v 3.593737 c 0,0.469226 0.35768,0.764369 0.68229,0.764369 h 11.4336 c 0.3206,0 0.68028,-0.293142 0.68028,-0.764369 z m -42.20371,-1.814878 v -2.429174 l -0.0291,-0.08504 -13.7129,-0.01201 c -0.10119,0 -0.30758,0.131064 -0.30758,0.417202 v 2.109019 z m 21.73205,0 v -2.429174 l -0.0291,-0.08504 -13.7129,-0.01201 c -0.10019,0 -0.30658,0.131064 -0.30658,0.417202 v 2.109019 z"
       stroke-miterlimit="79.8403193612775"
       id="path12"
       inkscape:connector-curvature="0"
       style="font-size:16px;font-family:'Times New Roman';fill:#54aad0;stroke:none;stroke-width:0.85201079;stroke-linejoin:miter;stroke-miterlimit:79.84031677;marker-start:none;marker-end:none" />
    <path
       d="m 51.133584,40.074386 v -3.593737 c 0,-1.776859 1.40265,-3.317604 3.239118,-3.317604 h 11.433597 c 1.832461,0 3.237114,1.541745 3.237114,3.317604 v 3.593737 c 0,1.776859 -1.404653,3.317603 -3.237114,3.317603 H 54.372702 c -1.836468,0 -3.239118,-1.538744 -3.239118,-3.317603 z m 20.456639,3.085491 v -9.775725 c 0,-0.12306 0.115218,-0.218106 0.255483,-0.218106 h 2.041857 c 0.05811,0 0.112212,0.01701 0.156295,0.04402 0.135255,-0.01801 0.273516,-0.03001 0.416787,-0.03001 h 13.729934 c 0.483914,0 0.935767,0.141068 1.31849,0.377182 0.76244,0.473229 1.24936,1.329643 1.24936,2.273099 v 2.473196 c 0,0.303146 -0.0521,0.594287 -0.149282,0.866418 -0.325615,0.90944 -1.188245,1.642795 -2.282311,1.642795 H 74.147053 v 2.347134 c 0,0.121059 -0.11622,0.220106 -0.25949,0.220106 h -2.041857 c -0.140265,0 -0.255483,-0.09905 -0.255483,-0.220106 z m 29.402537,0.011 v -7.451601 h -7.402983 c -0.146277,0 -0.267506,-0.149073 -0.267506,-0.33016 V 33.4952 c 0,-0.181087 0.121229,-0.329159 0.267506,-0.329159 h 17.362793 c 0.14628,0 0.26751,0.148072 0.26751,0.329159 v 1.893916 c 0,0.181087 -0.12123,0.33016 -0.26751,0.33016 h -7.40298 v 7.451601 c 0,0.114056 -0.1072,0.209101 -0.24146,0.209101 h -2.07191 c -0.13626,0 -0.24346,-0.09505 -0.24346,-0.209101 z m 12.78415,0.003 V 33.37414 c 0,-0.114055 0.11221,-0.208101 0.24346,-0.208101 h 2.06991 c 0.13425,0 0.24346,0.09405 0.24346,0.208101 v 9.799737 c 0,0.112054 -0.10921,0.206099 -0.24346,0.206099 h -2.06991 c -0.13125,0 -0.24346,-0.09405 -0.24346,-0.206099 z m 6.39207,0 v -9.801738 c 0,-0.114055 0.10921,-0.2061 0.24346,-0.2061 h 17.38684 l 0.003,0.002 c 0.43081,0.005 0.93376,0.110054 1.63609,0.446216 0.30357,0.14407 0.54903,0.354171 0.73138,0.60029 0.17733,0.240116 0.28153,0.490237 0.34265,0.708343 0.10219,0.354171 0.11722,0.708342 0.11922,0.948458 0.002,0.236114 -0.008,0.461223 -0.008,0.614297 v 6.824299 h -2.55683 v -6.824299 c 0,-0.2061 0.01,-0.408197 0.008,-0.592286 l -0.019,-0.09205 c -0.1052,-0.04102 -0.17734,-0.06103 -0.21942,-0.07303 -0.014,0.002 -0.026,0.002 -0.0371,0.002 h -6.12457 v 7.441597 c 0,0.114055 -0.11121,0.2081 -0.24446,0.2081 h -2.06891 c -0.13325,0 -0.24346,-0.09405 -0.24346,-0.2081 v -7.441597 h -6.39207 v 7.443598 c 0,0.112054 -0.10921,0.206099 -0.24246,0.206099 h -2.07091 c -0.13425,0 -0.24346,-0.09405 -0.24346,-0.206099 z M 66.486583,40.074386 v -3.593737 c 0,-0.470228 -0.359679,-0.76437 -0.680284,-0.76437 H 54.372702 c -0.324613,0 -0.682288,0.296143 -0.682288,0.76437 v 3.593737 c 0,0.469226 0.357675,0.764369 0.682288,0.764369 h 11.433597 c 0.320605,0 0.680284,-0.293142 0.680284,-0.764369 z m 21.716018,-1.814878 v -2.429174 l -0.02905,-0.08504 -13.712901,-0.01201 c -0.101191,0 -0.307581,0.131064 -0.307581,0.417202 v 2.109019 z m 49.784029,-2.558236 -0.009,-0.05503 c -0.0271,0.02901 -0.0591,0.05303 -0.0932,0.06703 0.027,-0.002 0.0611,-0.006 0.10219,-0.01201 z"
       stroke-miterlimit="79.8403193612775"
       id="path14"
       inkscape:connector-curvature="0"
       style="font-size:16px;font-family:'Times New Roman';fill:#ffffff;stroke:none;stroke-width:0.85201079;stroke-linejoin:miter;stroke-miterlimit:79.84031677;marker-start:none;marker-end:none" />
  </g>
</svg>
